<svg width="268" height="65" viewBox="0 0 268 65" fill="none" xmlns="http://www.w3.org/2000/svg">
<path d="M237.735 64.1046H237.527L154.611 58.0997L52.6503 62.7877L52.546 62.735L1.6698 31.7099L2.45251 31.3412L71.331 1.52759H71.3832L150.698 6.16292L242.901 3.52921L243.058 3.68723L266.591 31.7626L266.33 32.0786L237.735 64.1046ZM154.664 57.2043L237.37 63.2091L265.443 31.7626L242.536 4.47734L150.698 7.11106L71.4876 2.47572L3.60049 31.8679L52.8591 61.8923L154.664 57.2043Z" fill="url(#paint0_linear_44_965)"/>
<path d="M238.1 64.4733L237.318 63.9466L209.036 45.3526L155.446 57.7837L155.916 58.0997L155.029 57.9417V58.3104L154.559 57.9944L154.403 58.0997V57.9944L152.733 58.3631L153.672 57.8363L82.6021 45.7213L52.0764 63.0511L52.3894 62.1556L58.7555 41.6654L0.41748 31.7626L65.2259 20.7537L71.2267 1.42224L71.6441 1.68561L93.0904 16.013L149.706 6.37362L148.872 5.7942L150.333 6.11025V6.0049L150.593 6.16292L150.959 5.95223V6.2156L152.159 6.0049L151.637 6.32095L227.403 16.8558H227.456L227.664 16.9085L242.745 3.52921L243.266 4.10863L228.76 16.9611H229.23L228.708 17.2772L266.122 31.4466L266.33 31.4992L266.748 31.6572L267.322 31.7626L267.165 31.8153L267.27 31.8679L266.069 32.184L232.882 39.8744L238.1 64.4733ZM210.027 45.1945L236.953 62.8931L232.152 40.0325L210.027 45.1945ZM59.486 41.8234L53.3809 61.5235L81.4019 45.5633L59.486 41.8234ZM151.115 7.37443L154.977 57.0462L193.956 35.5025L151.115 7.37443ZM83.6457 45.1945L152.942 56.9936L111.562 29.2869L83.6457 45.1945ZM112.293 28.8655L154.194 56.8882L150.333 7.21641L112.293 28.8655ZM194.686 35.9765L157.22 56.6775L208.201 44.8258L194.686 35.9765ZM59.6947 41.0859L82.4455 44.9838L110.832 28.8128L92.8817 16.8031L65.7999 21.3858L59.6947 41.0859ZM195.417 35.5551L209.192 44.5624L232.048 39.2423L228.865 24.0195L219.889 22.0705L195.417 35.5551ZM4.90502 31.7626L58.9642 40.9806L64.965 21.5438L4.90502 31.7626ZM229.595 24.2302L232.726 39.137L264.243 31.8153L229.595 24.2302ZM152.576 7.4271L194.686 35.0811L218.689 21.8598L152.576 7.4271ZM229.439 23.3874L261.06 30.2877L228.238 17.8566L229.439 23.3874ZM93.9774 16.6451L111.615 28.4441L148.663 7.37443L93.9774 16.6451ZM220.829 21.5438L228.656 23.2294L227.508 17.8566L220.829 21.5438ZM160.299 8.32257L219.681 21.2804L226.569 17.4879L222.133 16.8558L160.299 8.32257ZM71.6441 2.58107L66.0608 20.5957L91.9946 16.171L71.6441 2.58107Z" fill="url(#paint1_linear_44_965)"/>
<path d="M150.698 7.95378C151.418 7.95378 152.002 7.3642 152.002 6.63692C152.002 5.90964 151.418 5.32007 150.698 5.32007C149.977 5.32007 149.393 5.90964 149.393 6.63692C149.393 7.3642 149.977 7.95378 150.698 7.95378Z" fill="#1E959B"/>
<path d="M52.7547 64.3153C53.8498 64.3153 54.7376 63.4191 54.7376 62.3136C54.7376 61.2082 53.8498 60.312 52.7547 60.312C51.6596 60.312 50.7719 61.2082 50.7719 62.3136C50.7719 63.4191 51.6596 64.3153 52.7547 64.3153Z" fill="#1E959B"/>
<path d="M237.527 65C238.247 65 238.831 64.4105 238.831 63.6832C238.831 62.9559 238.247 62.3663 237.527 62.3663C236.806 62.3663 236.222 62.9559 236.222 63.6832C236.222 64.4105 236.806 65 237.527 65Z" fill="#1E959B"/>
<path d="M266.017 33.7642C267.112 33.7642 268 32.8681 268 31.7626C268 30.6571 267.112 29.761 266.017 29.761C264.922 29.761 264.034 30.6571 264.034 31.7626C264.034 32.8681 264.922 33.7642 266.017 33.7642Z" fill="#1E959B"/>
<path d="M242.745 6.37362C244.041 6.37362 245.093 5.31238 245.093 4.00328C245.093 2.69417 244.041 1.63293 242.745 1.63293C241.448 1.63293 240.396 2.69417 240.396 4.00328C240.396 5.31238 241.448 6.37362 242.745 6.37362Z" fill="#1E959B"/>
<path d="M154.664 60.3647C156.133 60.3647 157.325 59.162 157.325 57.6783C157.325 56.1947 156.133 54.9919 154.664 54.9919C153.194 54.9919 152.002 56.1947 152.002 57.6783C152.002 59.162 153.194 60.3647 154.664 60.3647Z" fill="#1E959B"/>
<path d="M2.66122 34.4489C4.13096 34.4489 5.32243 33.2462 5.32243 31.7626C5.32243 30.2789 4.13096 29.0762 2.66122 29.0762C1.19147 29.0762 0 30.2789 0 31.7626C0 33.2462 1.19147 34.4489 2.66122 34.4489Z" fill="#1E959B"/>
<path d="M71.4354 4.00324C72.5305 4.00324 73.4183 3.10709 73.4183 2.00162C73.4183 0.896156 72.5305 0 71.4354 0C70.3403 0 69.4525 0.896156 69.4525 2.00162C69.4525 3.10709 70.3403 4.00324 71.4354 4.00324Z" fill="#1E959B"/>
<path d="M36.0047 17.2245C37.831 18.0672 39.1877 19.2261 40.1791 20.7536C41.1706 22.2812 41.6402 24.0721 41.6402 26.1264C41.6402 28.1807 41.1706 29.9716 40.1791 31.4992C39.1877 33.0267 37.831 34.1856 36.0047 35.0283C34.1784 35.8185 32.0911 36.2399 29.6386 36.2399H24.0031V43.9303H17.6371V16.013H29.5865C32.039 16.013 34.1784 16.3817 36.0047 17.2245ZM33.6566 29.7083C34.648 28.8655 35.1698 27.7066 35.1698 26.1264C35.1698 24.5462 34.648 23.3347 33.6566 22.4919C32.6651 21.6491 31.2041 21.2277 29.2734 21.2277H24.0553V30.9198H29.2734C31.1519 30.9724 32.6129 30.551 33.6566 29.7083ZM56.4073 37.7674H52.5981V43.9303H46.3365V20.9643H56.6682C59.7991 20.9643 62.3038 21.7018 64.1301 23.2293C65.9564 24.7569 66.8957 26.8112 66.8957 29.4449C66.8957 31.1305 66.4782 32.5527 65.6955 33.8168C64.9128 35.0283 63.7648 36.0292 62.3038 36.7139L67.3653 43.9303H60.634L56.4073 37.7674ZM59.5382 26.8112C58.8077 26.1791 57.7119 25.9157 56.2508 25.9157H52.5981V33.0267H56.2508C57.7119 33.0267 58.8077 32.7107 59.5382 32.1313C60.2687 31.4992 60.634 30.6564 60.634 29.4976C60.634 28.286 60.2687 27.3906 59.5382 26.8112ZM76.3404 42.8241C74.4619 41.876 72.8964 40.4011 71.8006 38.5575C70.7048 36.7666 70.1309 34.7123 70.1309 32.4473C70.1309 30.1823 70.7048 28.128 71.8006 26.3371C72.8964 24.4935 74.4619 23.0186 76.3404 22.0705C78.271 21.0697 80.4626 20.5429 82.8629 20.5429C85.2633 20.5429 87.4548 21.0697 89.3855 22.0705C91.264 23.0186 92.8295 24.5462 93.9253 26.3371C95.021 28.1807 95.595 30.1823 95.595 32.4473C95.595 34.7123 95.021 36.7666 93.9253 38.5575C92.8295 40.3484 91.264 41.8233 89.3855 42.8241C87.4548 43.8249 85.2633 44.3517 82.8629 44.3517C80.4626 44.3517 78.271 43.8249 76.3404 42.8241ZM86.2025 38.3468C87.1939 37.7674 87.9767 36.9246 88.4985 35.9238C89.0724 34.8703 89.3334 33.6588 89.3334 32.4473C89.3334 31.1305 89.0724 29.9716 88.4985 28.9708C87.9767 27.97 87.1418 27.1272 86.2025 26.5478C84.1675 25.389 81.6628 25.389 79.6277 26.5478C78.6363 27.1272 77.8536 27.97 77.2796 28.9708C76.7056 29.9716 76.4447 31.1831 76.4447 32.4473C76.4447 33.6588 76.7056 34.8176 77.2796 35.9238C77.8014 36.9246 78.6363 37.7674 79.6277 38.3468C81.6106 39.5057 84.1153 39.5057 86.2025 38.3468ZM100.083 20.9643H110.78C113.336 20.9643 115.632 21.4384 117.563 22.3339C119.494 23.2293 121.007 24.5989 122.103 26.3371C123.146 28.0753 123.72 30.077 123.72 32.4473C123.72 34.765 123.199 36.7666 122.103 38.5048C121.059 40.2431 119.546 41.56 117.563 42.5081C115.632 43.4562 113.336 43.9303 110.78 43.9303H100.083V20.9643ZM110.571 38.9789C112.658 38.9789 114.328 38.3995 115.528 37.2933C116.728 36.1872 117.354 34.5543 117.354 32.5C117.354 30.4457 116.728 28.8128 115.528 27.654C114.328 26.4951 112.658 25.9157 110.571 25.9157H106.292V38.9789H110.571ZM130.765 41.6126C128.886 39.769 127.947 37.2407 127.947 34.0275V20.9643H134.209V33.8168C134.209 35.6078 134.574 36.9246 135.357 37.8201C136.139 38.7155 137.287 39.1896 138.801 39.1896C140.262 39.1896 141.41 38.7155 142.14 37.8201C142.923 36.9246 143.288 35.5551 143.288 33.8168V20.9643H149.445V34.0275C149.445 37.2407 148.506 39.769 146.628 41.6126C144.749 43.4562 142.088 44.3517 138.696 44.3517C135.305 44.3517 132.643 43.4562 130.765 41.6126ZM159.777 42.8241C157.899 41.876 156.333 40.4011 155.238 38.5575C154.142 36.7666 153.568 34.7123 153.568 32.4473C153.568 30.1823 154.142 28.128 155.238 26.3371C156.333 24.5462 157.899 23.0713 159.777 22.0705C161.708 21.0697 163.847 20.5429 166.248 20.5429C168.439 20.5429 170.318 20.859 171.935 21.5437C173.553 22.2285 174.91 23.282 176.058 24.7569L172.04 28.4441C170.527 26.6005 168.7 25.705 166.509 25.705C164.578 25.705 163.012 26.3371 161.76 27.6013C160.508 28.8655 159.882 30.4984 159.882 32.5C159.882 33.8168 160.143 35.0283 160.717 36.0292C161.238 37.03 162.073 37.8728 163.065 38.3995C164.108 38.9789 165.308 39.2423 166.509 39.2423C168.7 39.2423 170.527 38.3468 172.04 36.5032L176.058 40.1904C174.962 41.6126 173.553 42.6661 171.935 43.3509C170.318 44.0356 168.439 44.3517 166.248 44.3517C163.9 44.3517 161.708 43.8249 159.777 42.8241ZM184.25 25.863H177.101V20.9643H197.66V25.863H190.512V43.8776H184.25V25.863ZM205.279 18.5413V29.4976H219.576V32.0259H205.279V43.8776H202.357V15.9603H221.298V18.4886L205.279 18.5413ZM226.673 21.3857H229.491V43.9303H226.673V21.3857ZM241.701 23.7561H233.822V21.3857H252.398V23.7561H244.519V43.9303H241.701V23.7561ZM226.308 16.7504C225.838 17.7512 226.308 18.9627 227.299 19.3841C228.291 19.8582 229.491 19.3841 229.908 18.3833C230.378 17.3825 229.908 16.171 228.917 15.7496C227.925 15.2755 226.725 15.6969 226.308 16.7504Z" fill="#1E959B"/>
<defs>
<linearGradient id="paint0_linear_44_965" x1="1.67032" y1="32.8375" x2="266.587" y2="32.8375" gradientUnits="userSpaceOnUse">
<stop stop-color="#AFDBDE"/>
<stop offset="1" stop-color="#C7E5E7"/>
</linearGradient>
<linearGradient id="paint1_linear_44_965" x1="0.392068" y1="32.948" x2="267.298" y2="32.948" gradientUnits="userSpaceOnUse">
<stop stop-color="#AFDBDE"/>
<stop offset="1" stop-color="#C7E5E7"/>
</linearGradient>
</defs>
</svg>
