<svg width="218" height="218" viewBox="0 0 218 218" fill="none" xmlns="http://www.w3.org/2000/svg">
<path d="M108.946 217.497C169.006 217.497 217.694 168.809 217.694 108.748C217.694 48.6883 169.006 0 108.946 0C48.8855 0 0.197144 48.6883 0.197144 108.748C0.197144 168.809 48.8855 217.497 108.946 217.497Z" fill="#1E959B"/>
<g clip-path="url(#clip0_5832_704)">
<path d="M158.984 161.42H148.511C147.123 161.418 145.792 160.866 144.81 159.884C143.828 158.903 143.276 157.571 143.275 156.183V133.491C143.276 132.103 143.828 130.772 144.81 129.79C145.792 128.808 147.123 128.256 148.511 128.255H158.984C160.373 128.256 161.704 128.808 162.685 129.79C163.667 130.772 164.219 132.103 164.221 133.491V156.183C164.219 157.571 163.667 158.903 162.685 159.884C161.704 160.866 160.373 161.418 158.984 161.42ZM148.511 131.746C148.048 131.746 147.605 131.93 147.278 132.258C146.95 132.585 146.766 133.029 146.766 133.491V156.183C146.766 156.646 146.95 157.09 147.278 157.417C147.605 157.744 148.048 157.928 148.511 157.929H158.984C159.447 157.928 159.891 157.744 160.218 157.417C160.545 157.09 160.729 156.646 160.73 156.183V133.491C160.729 133.029 160.545 132.585 160.218 132.258C159.891 131.93 159.447 131.746 158.984 131.746H148.511Z" fill="#F8FFFF"/>
<path d="M153.748 156.183C154.712 156.183 155.493 155.402 155.493 154.438C155.493 153.474 154.712 152.692 153.748 152.692C152.784 152.692 152.002 153.474 152.002 154.438C152.002 155.402 152.784 156.183 153.748 156.183Z" fill="#F8FFFF"/>
<path d="M152.002 135.237C152.002 136.201 152.784 136.982 153.748 136.982C154.712 136.982 155.493 136.201 155.493 135.237C155.493 134.273 154.712 133.491 153.748 133.491C152.784 133.491 152.002 134.273 152.002 135.237Z" fill="#F8FFFF"/>
<path d="M59.4893 130H59.485L63.9776 150.947L59.4893 130ZM63.9776 150.947V150.973C64.1543 150.955 64.3332 150.947 64.5143 150.947H63.9776ZM59.4893 130H59.485L63.9776 150.947L59.4893 130ZM63.9776 150.947V150.973C64.1543 150.955 64.3332 150.947 64.5143 150.947H63.9776Z" fill="#F8FFFF"/>
<path d="M117.539 150.947H96.1804C96.1801 150.701 96.1538 150.456 96.1018 150.216L91.6115 129.269C91.4412 128.49 91.0104 127.792 90.39 127.29C89.7697 126.788 88.9968 126.513 88.199 126.509H59.4894C58.9689 126.509 58.4551 126.626 57.9854 126.85C57.5157 127.074 57.1022 127.401 56.775 127.805C56.4479 128.21 56.2154 128.683 56.0946 129.189C55.9738 129.695 55.9677 130.222 56.0769 130.731L60.5651 151.678C60.6229 151.948 60.7138 152.21 60.8356 152.459C60.0965 153.188 59.591 154.121 59.3834 155.138C59.1758 156.156 59.2756 157.212 59.67 158.173C60.0643 159.133 60.7355 159.955 61.5981 160.533C62.4608 161.111 63.4759 161.42 64.5143 161.42H117.539C118.928 161.42 120.26 160.868 121.242 159.886C122.224 158.904 122.776 157.572 122.776 156.183C122.776 154.794 122.224 153.462 121.242 152.48C120.26 151.498 118.928 150.947 117.539 150.947H117.539ZM88.199 130L92.6871 150.947H70.4099L65.9173 130H88.199H88.199ZM59.485 130H62.4284C62.4285 130.246 62.4549 130.491 62.507 130.731L66.8381 150.947H64.5143C64.3332 150.947 64.1543 150.955 63.9776 150.973V150.947L59.485 130ZM91.3562 157.929H64.5143C64.0514 157.929 63.6074 157.745 63.2801 157.417C62.9527 157.09 62.7688 156.646 62.7688 156.183C62.7688 155.72 62.9527 155.276 63.2801 154.949C63.6074 154.622 64.0514 154.438 64.5143 154.438H91.3562C91.8191 154.438 92.2631 154.622 92.5905 154.949C92.9178 155.276 93.1017 155.72 93.1017 156.183C93.1017 156.646 92.9178 157.09 92.5905 157.417C92.2631 157.745 91.8191 157.929 91.3562 157.929H91.3562ZM117.539 157.929H96.2916C96.6932 156.8 96.6932 155.567 96.2916 154.438H117.539C118.002 154.438 118.446 154.622 118.773 154.949C119.101 155.276 119.285 155.72 119.285 156.183C119.285 156.646 119.101 157.09 118.773 157.417C118.446 157.745 118.002 157.929 117.539 157.929Z" fill="#F8FFFF"/>
<path d="M135.42 149.201C133.01 149.201 131.056 151.155 131.056 153.565V154.025C131.053 154.874 131.288 155.708 131.735 156.43C132.181 157.152 132.822 157.735 133.583 158.112C133.935 158.288 134.217 158.577 134.383 158.934C134.55 159.29 134.592 159.692 134.501 160.075C134.411 160.458 134.194 160.799 133.885 161.043C133.577 161.287 133.195 161.42 132.801 161.42H127.565C126.601 161.42 125.819 160.638 125.819 159.674V158.948C125.819 158.385 126.276 157.929 126.839 157.929C127.615 157.929 128.121 157.084 127.9 156.34C127.677 155.592 127.563 154.812 127.565 154.025C127.565 151.361 125.405 149.201 122.741 149.201H101.382C100.418 149.201 99.6365 148.42 99.6365 147.455C99.6365 146.491 100.418 145.71 101.382 145.71H138.038C139.002 145.71 139.784 146.491 139.784 147.455C139.784 148.42 139.002 149.201 138.038 149.201H135.42Z" fill="#F8FFFF"/>
<path d="M155.493 123.018C155.493 123.982 154.712 124.764 153.748 124.764C152.784 124.764 152.002 123.982 152.002 123.018V107.745C152.002 107.166 151.772 106.612 151.363 106.203C150.953 105.794 150.399 105.563 149.82 105.563H97.891C96.5026 105.564 95.1716 106.117 94.1899 107.098C93.2082 108.08 92.656 109.411 92.6544 110.799V121.273C92.6544 122.237 91.8729 123.018 90.9089 123.018C89.9448 123.018 89.1633 122.237 89.1633 121.273V110.799C89.166 108.486 90.0863 106.267 91.7225 104.631C93.3587 102.995 95.5771 102.074 97.891 102.072H149.82C151.324 102.073 152.766 102.672 153.83 103.735C154.893 104.799 155.492 106.241 155.493 107.745V123.018Z" fill="#F8FFFF"/>
<path d="M138.038 138.728H99.6365C98.6725 138.728 97.891 139.509 97.891 140.473C97.891 141.437 98.6725 142.219 99.6365 142.219H138.038C139.002 142.219 139.784 141.437 139.784 140.473C139.784 139.509 139.002 138.728 138.038 138.728Z" fill="#F8FFFF"/>
<path d="M75.1991 88.1076C75.1988 88.8644 75.2335 89.6206 75.303 90.3739C75.3538 90.9238 74.9715 91.4266 74.4241 91.4998L72.9451 91.6975C72.398 91.7707 71.8932 91.3867 71.8399 90.8373C71.8378 90.8161 71.8358 90.795 71.8338 90.7739C71.7662 90.0611 71.0154 89.612 70.4104 89.995C68.5078 91.1996 66.966 92.9125 65.9682 94.9531C64.7485 97.4478 64.4145 100.283 65.0214 102.993C65.6282 105.703 67.1396 108.125 69.3068 109.861C71.474 111.598 74.1678 112.544 76.9446 112.545H83.9268C84.8908 112.545 85.6723 113.326 85.6723 114.29C85.6723 115.255 84.8908 116.036 83.9268 116.036H76.9446C73.2272 116.035 69.6305 114.717 66.7935 112.315C63.9566 109.912 62.0633 106.582 61.4501 102.916C60.8369 99.249 61.5436 95.4839 63.4445 92.2893C65.2356 89.2793 67.9775 86.9595 71.2285 85.6893C71.5935 85.5467 71.8549 85.2169 71.9014 84.8278C72.6981 78.1565 75.872 71.9865 80.853 67.4562C85.7455 63.0063 92.0479 60.4418 98.6354 60.1982C99.1877 60.1778 99.6365 60.6276 99.6365 61.1803V62.6713C99.6365 63.2231 99.1891 63.6685 98.6377 63.6917C92.522 63.9481 86.7099 66.4902 82.3645 70.8356C77.7831 75.4169 75.2062 81.6286 75.1991 88.1076Z" fill="#F8FFFF"/>
<path d="M155.056 96.646C155.282 97.584 154.594 98.4617 153.636 98.5812C152.681 98.7003 151.823 98.0184 151.567 97.0907C150.939 94.8088 149.658 92.745 147.864 91.1633C145.632 89.1957 142.759 88.1092 139.784 88.1076C139.271 88.1085 138.76 88.142 138.252 88.2079C138.004 88.2389 137.753 88.2164 137.515 88.1419C137.277 88.0675 137.057 87.9428 136.871 87.7763C136.685 87.6099 136.537 87.4055 136.437 87.1769C136.337 86.9484 136.287 86.701 136.29 86.4515L136.293 86.3643C136.294 85.0844 135.943 83.8288 135.278 82.735C134.614 81.6411 133.661 80.7511 132.525 80.1623C131.388 79.5735 130.112 79.3085 128.835 79.3964C127.558 79.4844 126.33 79.9217 125.285 80.6608C125.065 80.816 124.813 80.9184 124.547 80.96C124.281 81.0016 124.009 80.9813 123.753 80.9007C123.496 80.82 123.262 80.6811 123.068 80.495C122.874 80.3088 122.725 80.0803 122.634 79.8273C120.921 75.1001 117.796 71.0143 113.682 68.1239C109.568 65.2336 104.664 63.6787 99.6365 63.6702V60.1791C105.034 60.1889 110.314 61.7577 114.841 64.6968C119.368 67.6358 122.95 71.8201 125.156 76.7464C126.614 76.1174 128.195 75.8278 129.781 75.8996C131.367 75.9713 132.915 76.4025 134.31 77.1605C135.705 77.9186 136.909 78.9836 137.832 80.2752C138.755 81.5669 139.372 83.0514 139.637 84.6165H139.784C143.61 84.6194 147.303 86.0172 150.173 88.548C152.603 90.6915 154.301 93.5233 155.056 96.646Z" fill="#F8FFFF"/>
</g>
<defs>
<clipPath id="clip0_5832_704">
<rect width="111.714" height="111.714" fill="white" transform="translate(52.5073 53.197)"/>
</clipPath>
</defs>
</svg>
