<svg width="219" height="218" viewBox="0 0 219 218" fill="none" xmlns="http://www.w3.org/2000/svg">
<path d="M109.247 217.902C169.419 217.902 218.198 169.123 218.198 108.951C218.198 48.779 169.419 0 109.247 0C49.075 0 0.296021 48.779 0.296021 108.951C0.296021 169.123 49.075 217.902 109.247 217.902Z" fill="#1E959B"/>
<g clip-path="url(#clip0_5832_703)">
<path d="M105.171 154.677H112.159C113.124 154.677 113.906 153.895 113.906 152.93C113.906 151.965 113.124 151.183 112.159 151.183H105.171C104.207 151.183 103.424 151.965 103.424 152.93C103.424 153.895 104.207 154.677 105.171 154.677Z" fill="#F8FFFF"/>
<path d="M78.9674 83.053C79.9321 83.053 80.7143 82.2708 80.7143 81.3061V70.8245H136.616V84.8C136.616 85.7647 137.398 86.5469 138.363 86.5469C139.328 86.5469 140.11 85.7647 140.11 84.8V63.8368C140.11 60.6924 136.078 56.8491 131.375 56.8491H85.9551C81.1336 56.8548 77.2261 60.7622 77.2205 65.5838V81.3061C77.2205 82.2708 78.0026 83.053 78.9674 83.053ZM80.7143 65.5838C80.7143 62.6893 83.0607 60.343 85.9551 60.343H131.375C134.403 60.343 136.616 62.7887 136.616 63.8368V67.3307H80.7143V65.5838Z" fill="#F8FFFF"/>
<path d="M138.363 133.714C137.398 133.714 136.616 134.496 136.616 135.461V144.195H80.7143V137.208C80.7143 136.243 79.9321 135.461 78.9674 135.461C78.0026 135.461 77.2205 136.243 77.2205 137.208V152.93C77.2261 157.752 81.1336 161.659 85.9551 161.665H131.375C136.197 161.659 140.104 157.752 140.11 152.93V135.461C140.11 134.496 139.328 133.714 138.363 133.714ZM136.616 152.93C136.616 155.825 134.27 158.171 131.375 158.171H85.9551C83.0607 158.171 80.7143 155.825 80.7143 152.93V147.689H136.616V152.93Z" fill="#F8FFFF"/>
<path d="M105.171 62.0899H101.677C100.713 62.0899 99.9305 62.8721 99.9305 63.8368C99.9305 64.8016 100.713 65.5838 101.677 65.5838H105.171C106.136 65.5838 106.918 64.8016 106.918 63.8368C106.918 62.8721 106.136 62.0899 105.171 62.0899Z" fill="#F8FFFF"/>
<path d="M115.653 62.0899H112.159C111.194 62.0899 110.412 62.8721 110.412 63.8368C110.412 64.8016 111.194 65.5838 112.159 65.5838H115.653C116.618 65.5838 117.4 64.8016 117.4 63.8368C117.4 62.8721 116.618 62.0899 115.653 62.0899Z" fill="#F8FFFF"/>
<path d="M160.671 90.6714C160.339 90.2716 159.846 90.0403 159.326 90.0408H113.473L112.582 84.0331C112.189 81.4699 109.99 79.573 107.397 79.5592H99.9305V83.0531H107.397C108.264 83.0524 109 83.6874 109.126 84.5449L115.23 125.746C115.623 128.309 117.822 130.206 120.415 130.22H124.709C125.656 132.937 128.625 134.372 131.342 133.426C132.844 132.903 134.024 131.722 134.548 130.22H142.178C143.143 132.949 146.137 134.379 148.866 133.414C151.595 132.449 153.025 129.455 152.06 126.726C151.095 123.997 148.101 122.567 145.372 123.532C143.88 124.06 142.706 125.234 142.178 126.726H134.548C133.601 124.009 130.631 122.574 127.915 123.521C126.413 124.044 125.232 125.224 124.709 126.726H120.415C119.55 126.722 118.817 126.089 118.686 125.234L118.13 121.485H154.085C154.925 121.485 155.646 120.887 155.801 120.062L161.042 92.1109C161.139 91.5999 161.003 91.0721 160.671 90.6714ZM147.098 126.726C148.062 126.726 148.845 127.508 148.845 128.473C148.845 129.438 148.062 130.22 147.098 130.22C146.133 130.22 145.351 129.438 145.351 128.473C145.351 127.508 146.133 126.726 147.098 126.726ZM129.628 126.726C130.593 126.726 131.375 127.508 131.375 128.473C131.375 129.438 130.593 130.22 129.628 130.22C128.664 130.22 127.881 129.438 127.881 128.473C127.881 127.508 128.664 126.726 129.628 126.726ZM152.635 117.992H117.613L113.992 93.5346H157.23L152.635 117.992Z" fill="#F8FFFF"/>
<path d="M101.677 109.257C101.677 96.7144 91.5099 86.5469 78.9674 86.5469C66.4249 86.5469 56.2573 96.7144 56.2573 109.257C56.2573 121.799 66.4249 131.967 78.9674 131.967C91.5038 131.953 101.663 121.793 101.677 109.257ZM59.7512 109.257C59.7512 98.6441 68.3546 90.0407 78.9674 90.0407C89.5802 90.0407 98.1836 98.6441 98.1836 109.257C98.1836 119.87 89.5802 128.473 78.9674 128.473C68.3598 128.461 59.7636 119.864 59.7512 109.257Z" fill="#F8FFFF"/>
<path d="M80.7144 123.232V121.237C84.4443 120.277 86.6897 116.475 85.7298 112.746C84.9358 109.661 82.1527 107.506 78.9674 107.51C77.0377 107.51 75.4736 105.946 75.4736 104.016C75.4736 102.086 77.0377 100.522 78.9674 100.522C80.8971 100.522 82.4613 102.086 82.4613 104.016C82.4613 104.981 83.2435 105.763 84.2082 105.763C85.173 105.763 85.9552 104.981 85.9552 104.016C85.9431 100.84 83.7903 98.0707 80.7144 97.2765V95.2815C80.7144 94.3168 79.9322 93.5346 78.9674 93.5346C78.0027 93.5346 77.2205 94.3168 77.2205 95.2815V97.2765C73.4906 98.2365 71.2452 102.038 72.2051 105.768C72.9991 108.853 75.7821 111.008 78.9674 111.004C80.8971 111.004 82.4613 112.568 82.4613 114.498C82.4613 116.427 80.8971 117.992 78.9674 117.992C77.0377 117.992 75.4736 116.427 75.4736 114.498C75.4736 113.533 74.6914 112.751 73.7267 112.751C72.7619 112.751 71.9797 113.533 71.9797 114.498C71.9917 117.674 74.1446 120.443 77.2205 121.237V123.232C77.2205 124.197 78.0027 124.979 78.9674 124.979C79.9322 124.979 80.7144 124.197 80.7144 123.232Z" fill="#F8FFFF"/>
<path d="M119.147 98.7754H143.604C144.568 98.7754 145.351 97.9932 145.351 97.0285C145.351 96.0637 144.568 95.2816 143.604 95.2816H119.147C118.182 95.2816 117.4 96.0637 117.4 97.0285C117.4 97.9932 118.182 98.7754 119.147 98.7754Z" fill="#F8FFFF"/>
<path d="M148.844 98.7754H152.338C153.303 98.7754 154.085 97.9932 154.085 97.0285C154.085 96.0637 153.303 95.2816 152.338 95.2816H148.844C147.88 95.2816 147.098 96.0637 147.098 97.0285C147.098 97.9932 147.88 98.7754 148.844 98.7754Z" fill="#F8FFFF"/>
</g>
<defs>
<clipPath id="clip0_5832_703">
<rect width="104.816" height="104.816" fill="white" transform="translate(56.257 56.8491)"/>
</clipPath>
</defs>
</svg>
