<svg width="218" height="218" viewBox="0 0 218 218" fill="none" xmlns="http://www.w3.org/2000/svg">
<path d="M108.946 217.497C169.006 217.497 217.694 168.809 217.694 108.748C217.694 48.6883 169.006 0 108.946 0C48.8856 0 0.197266 48.6883 0.197266 108.748C0.197266 168.809 48.8856 217.497 108.946 217.497Z" fill="#1E959B"/>
<path d="M163.363 110.799C163.363 99.1236 155.127 89.3469 144.162 86.9416V63.6702C144.162 58.8578 140.247 54.9426 135.434 54.9426H90.0505C85.2381 54.9426 81.3229 58.8578 81.3229 63.6702V82.871H71.232L70.1794 87.0882L66.4545 84.8522L57.1194 94.182L59.3554 97.9105L55.14 98.963V112.163L59.3571 113.215L57.1194 116.944L66.4527 126.275L70.1777 124.039L71.232 128.255H81.3229V154.438C81.3229 159.25 85.2381 163.165 90.0505 163.165H135.434C140.247 163.165 144.162 159.25 144.162 154.438V134.657C155.127 132.252 163.363 122.475 163.363 110.799ZM159.872 110.799C159.872 114.201 159.039 117.406 157.594 120.25C156.625 117.584 154.396 115.488 151.516 114.767L144.162 112.927V112.51C146.337 110.871 147.653 108.293 147.653 105.565V102.074C147.653 99.635 146.621 97.2891 144.822 95.6378C143.024 93.9918 140.587 93.1644 138.15 93.3791C133.69 93.7648 130.198 97.7446 130.198 102.433V105.563C130.198 108.291 131.514 110.869 133.689 112.508V112.925L126.335 114.765C123.455 115.486 121.226 117.583 120.257 120.248C118.812 117.406 117.979 114.201 117.979 110.799C117.979 99.2493 127.375 89.8531 138.925 89.8531C150.475 89.8531 159.872 99.2493 159.872 110.799ZM133.689 86.9416C132.488 87.2052 131.325 87.5682 130.198 88.0011V87.871C130.198 85.1096 127.959 82.871 125.198 82.871H100.287C97.5257 82.871 95.2871 85.1096 95.2871 87.871V102.308C95.2871 105.07 97.5257 107.308 100.287 107.308H114.767C114.601 108.452 114.488 109.611 114.488 110.799C114.488 122.475 122.723 132.252 133.689 134.657C133.689 136.905 131.866 138.728 129.618 138.728H96.796C94.0346 138.728 91.796 136.489 91.796 133.728V84.38C91.796 81.6185 94.0346 79.3799 96.796 79.3799H128.689C131.45 79.3799 133.689 81.6185 133.689 84.3799V86.9416ZM115.518 103.817H103.778C101.017 103.817 98.7781 101.579 98.7781 98.8173V91.3621C98.7781 88.6006 101.017 86.3621 103.778 86.3621H123.401C125.226 86.3621 126.707 87.8422 126.707 89.6681C121.376 92.7629 117.316 97.8005 115.518 103.817ZM90.0505 58.4336H135.434C138.321 58.4336 140.671 60.7831 140.671 63.6702V68.9068H84.8139V63.6702C84.8139 60.7831 87.1634 58.4336 90.0505 58.4336ZM81.3229 113.543C80.2214 114.029 79.0327 114.29 77.8318 114.29C73.0194 114.29 69.1042 110.375 69.1042 105.563C69.1042 100.75 73.0194 96.8352 77.8318 96.8352C79.0327 96.8352 80.2214 97.097 81.3229 97.5823V113.543ZM73.9585 124.764L73.1084 121.362L72.7541 120.428L70.7607 119.618L66.9938 121.88L61.5164 116.401L63.7786 112.632L62.9058 110.503L58.631 109.436V101.69L62.9006 100.623L63.7786 98.4935L61.5164 94.7249L66.9938 89.2457L70.7607 91.5079L72.8902 90.6421L73.9585 86.3621H81.3229V93.8766C80.19 93.5362 79.017 93.3442 77.8318 93.3442C71.0941 93.3442 65.6131 98.8269 65.6131 105.563C65.6131 112.299 71.0941 117.782 77.8318 117.782C79.017 117.782 80.19 117.59 81.3229 117.249V124.764H73.9585ZM135.434 159.674H90.0505C87.1634 159.674 84.8139 157.325 84.8139 154.438V154.201C84.8139 151.44 87.0525 149.201 89.8139 149.201H140.671V154.438C140.671 157.325 138.321 159.674 135.434 159.674ZM140.671 140.71C140.671 143.471 138.432 145.71 135.671 145.71H89.8139C87.0525 145.71 84.8139 143.471 84.8139 140.71V72.3978H140.671V86.4511C140.091 86.4092 139.515 86.3621 138.925 86.3621C138.335 86.3621 137.759 86.4092 137.18 86.4511V80.8889C137.18 78.1275 134.941 75.8889 132.18 75.8889H93.305C90.5436 75.8889 88.305 78.1275 88.305 80.8889V137.219C88.305 139.98 90.5436 142.219 93.305 142.219H132.18C134.941 142.219 137.18 139.98 137.18 137.219V135.148C137.759 135.19 138.335 135.237 138.925 135.237C139.515 135.237 140.091 135.19 140.671 135.148V140.71ZM138.925 131.746C132.668 131.746 127.057 128.972 123.216 124.608V123.233C123.216 120.826 124.848 118.736 127.181 118.152L134.341 116.363C136.009 115.946 137.18 114.447 137.18 112.728V111.576C137.18 110.955 136.849 110.38 136.312 110.068C134.67 109.112 133.689 107.427 133.689 105.563V102.433C133.689 99.5373 135.782 97.0883 138.452 96.8562C139.95 96.7357 141.369 97.207 142.463 98.2107C143.542 99.2004 144.162 100.607 144.162 102.072V105.563C144.162 107.427 143.181 109.112 141.538 110.068C141.001 110.38 140.671 110.955 140.671 111.576V112.728C140.671 114.447 141.841 115.946 143.509 116.363L150.669 118.152C153.003 118.736 154.635 120.826 154.635 123.233V124.608C150.793 128.972 145.183 131.746 138.925 131.746Z" fill="#F8FFFF"/>
<path d="M119.724 63.6702C119.724 62.7062 120.506 61.9247 121.47 61.9247C122.434 61.9247 123.216 62.7062 123.216 63.6702C123.216 64.6342 122.434 65.4157 121.47 65.4157C120.506 65.4157 119.724 64.6342 119.724 63.6702Z" fill="#F8FFFF"/>
<path d="M102.269 63.6702C102.269 62.7062 103.051 61.9247 104.015 61.9247H114.488C115.452 61.9247 116.233 62.7062 116.233 63.6702C116.233 64.6342 115.452 65.4157 114.488 65.4157H104.015C103.051 65.4157 102.269 64.6342 102.269 63.6702Z" fill="#F8FFFF"/>
<path d="M105.76 154.438C105.76 153.474 106.542 152.692 107.506 152.692H117.979C118.943 152.692 119.724 153.474 119.724 154.438C119.724 155.402 118.943 156.183 117.979 156.183H107.506C106.542 156.183 105.76 155.402 105.76 154.438Z" fill="#F8FFFF"/>
<path d="M130.198 154.438C130.198 153.474 130.979 152.692 131.943 152.692C132.907 152.692 133.689 153.474 133.689 154.438C133.689 155.402 132.907 156.183 131.943 156.183C130.979 156.183 130.198 155.402 130.198 154.438Z" fill="#F8FFFF"/>
<path d="M91.796 154.438C91.796 153.474 92.5775 152.692 93.5415 152.692C94.5056 152.692 95.2871 153.474 95.2871 154.438C95.2871 155.402 94.5056 156.183 93.5415 156.183C92.5775 156.183 91.796 155.402 91.796 154.438Z" fill="#F8FFFF"/>
<path d="M95.2871 112.545C95.2871 111.581 96.0686 110.799 97.0326 110.799H109.251C110.215 110.799 110.997 111.581 110.997 112.545C110.997 113.509 110.215 114.29 109.251 114.29H97.0326C96.0686 114.29 95.2871 113.509 95.2871 112.545Z" fill="#F8FFFF"/>
<path d="M95.2871 119.527C95.2871 118.563 96.0686 117.782 97.0326 117.782H109.251C110.215 117.782 110.997 118.563 110.997 119.527C110.997 120.491 110.215 121.273 109.251 121.273H97.0326C96.0686 121.273 95.2871 120.491 95.2871 119.527Z" fill="#F8FFFF"/>
<path d="M95.2871 126.509C95.2871 125.545 96.0686 124.764 97.0326 124.764H109.251C110.215 124.764 110.997 125.545 110.997 126.509C110.997 127.473 110.215 128.255 109.251 128.255H97.0326C96.0686 128.255 95.2871 127.473 95.2871 126.509Z" fill="#F8FFFF"/>
<path d="M95.2871 133.491C95.2871 132.527 96.0686 131.746 97.0326 131.746H109.251C110.215 131.746 110.997 132.527 110.997 133.491C110.997 134.455 110.215 135.237 109.251 135.237H97.0326C96.0686 135.237 95.2871 134.455 95.2871 133.491Z" fill="#F8FFFF"/>
<path d="M152.889 86.3621C155.777 86.3621 158.126 84.0126 158.126 81.1255C158.126 80.1139 157.836 79.1721 157.335 78.3747C156.211 76.5845 154.635 74.7986 154.635 72.6846V63.6702C154.635 62.7062 153.853 61.9247 152.889 61.9247C151.925 61.9247 151.144 62.7062 151.144 63.6702V72.6846C151.144 74.7986 149.568 76.5845 148.444 78.3747C147.943 79.1721 147.653 80.1139 147.653 81.1255C147.653 84.0126 150.002 86.3621 152.889 86.3621ZM152.889 79.38C153.851 79.38 154.635 80.162 154.635 81.1255C154.635 82.089 153.851 82.871 152.889 82.871C151.928 82.871 151.144 82.089 151.144 81.1255C151.144 80.162 151.928 79.38 152.889 79.38Z" fill="#F8FFFF"/>
<path d="M151.144 56.6881C151.144 55.7241 151.925 54.9426 152.89 54.9426C153.854 54.9426 154.635 55.7241 154.635 56.6881C154.635 57.6521 153.854 58.4336 152.89 58.4336C151.925 58.4336 151.144 57.6521 151.144 56.6881Z" fill="#F8FFFF"/>
<path d="M72.5952 131.746C69.7081 131.746 67.3586 134.095 67.3586 136.982C67.3586 137.994 67.6488 138.936 68.1495 139.733C69.2738 141.523 70.8497 143.309 70.8497 145.423V154.438C70.8497 155.402 71.6312 156.183 72.5952 156.183C73.5593 156.183 74.3408 155.402 74.3408 154.438V145.423C74.3408 143.309 75.9167 141.523 77.0409 139.733C77.5416 138.936 77.8318 137.994 77.8318 136.982C77.8318 134.095 75.4823 131.746 72.5952 131.746ZM72.5952 138.728C71.6334 138.728 70.8497 137.946 70.8497 136.982C70.8497 136.019 71.6334 135.237 72.5952 135.237C73.557 135.237 74.3408 136.019 74.3408 136.982C74.3408 137.946 73.557 138.728 72.5952 138.728Z" fill="#F8FFFF"/>
<path d="M70.8497 161.42C70.8497 160.456 71.6312 159.674 72.5952 159.674C73.5592 159.674 74.3407 160.456 74.3407 161.42C74.3407 162.384 73.5592 163.165 72.5952 163.165C71.6312 163.165 70.8497 162.384 70.8497 161.42Z" fill="#F8FFFF"/>
</svg>
